<?xml version="1.0" encoding="UTF-8"?><svg id="Layer_2" xmlns="http://www.w3.org/2000/svg" viewBox="0 0 16 22.1"><path d="M5.5,7c1.93,0,3.5,1.57,3.5,3.5s-1.57,3.5-3.5,3.5-3.5-1.57-3.5-3.5,1.57-3.5,3.5-3.5ZM5.5,5C2.46,5,0,7.46,0,10.5s2.46,5.5,5.5,5.5,5.5-2.46,5.5-5.5c0-1.16-.36-2.23-.97-3.12l3.97-3.96v2.58h2V0h-6v2h2.58l-3.97,3.97c-.88-.61-1.95-.97-3.11-.97Z" style="stroke-width:0px;"/><path d="M11,10.6c0-3.04-2.46-5.5-5.5-5.5S0,7.56,0,10.6C0,13.3,1.94,15.53,4.5,16v2.1h-2v2h2v2h2v-2h2v-2h-2v-2.1c2.56-.47,4.5-2.7,4.5-5.4ZM2,10.6c0-1.93,1.57-3.5,3.5-3.5s3.5,1.57,3.5,3.5-1.57,3.5-3.5,3.5-3.5-1.57-3.5-3.5Z" style="stroke-width:0px;"/></svg>